<svg width="82" height="90" viewBox="0 0 82 90" fill="none" xmlns="http://www.w3.org/2000/svg">
<path d="M28.3333 53.3333H11.6666C7.06659 53.3333 3.33325 57.0499 3.33325 61.6333V71.5999V73.2666C3.33325 77.8499 7.06659 81.5666 11.6666 81.5666H14.1666C14.6166 81.5666 15.2166 81.8666 15.4999 82.2333L17.9999 85.5499C19.0999 87.0166 20.8999 87.0166 21.9999 85.5499L24.4999 82.2333C24.8166 81.8166 25.3166 81.5666 25.8333 81.5666H28.3333C32.9333 81.5666 36.6666 77.8499 36.6666 73.2666V61.6333C36.6666 57.0499 32.9333 53.3333 28.3333 53.3333ZM13.3333 69.9999C12.3999 69.9999 11.6666 69.2499 11.6666 68.3333C11.6666 67.4166 12.4166 66.6666 13.3333 66.6666C14.2499 66.6666 14.9999 67.4166 14.9999 68.3333C14.9999 69.2499 14.2666 69.9999 13.3333 69.9999ZM19.9999 69.9999C19.0666 69.9999 18.3333 69.2499 18.3333 68.3333C18.3333 67.4166 19.0833 66.6666 19.9999 66.6666C20.9166 66.6666 21.6666 67.4166 21.6666 68.3333C21.6666 69.2499 20.9333 69.9999 19.9999 69.9999ZM26.6666 69.9999C25.7333 69.9999 24.9999 69.2499 24.9999 68.3333C24.9999 67.4166 25.7499 66.6666 26.6666 66.6666C27.5833 66.6666 28.3333 67.4166 28.3333 68.3333C28.3333 69.2499 27.5999 69.9999 26.6666 69.9999Z" fill="url(#paint0_linear_185_58)"/>
<rect x="13" y="6" width="68" height="68" rx="20" fill="url(#paint1_linear_185_58)" stroke="#5C6648"/>
<circle cx="26.5" cy="18.5" r="3.5" fill="#5C6648"/>
<rect x="53" y="58" width="15" height="3" rx="1.5" fill="#5C6648"/>
<rect x="53" y="48" width="15" height="3" rx="1.5" fill="#5C6648"/>
<rect x="53" y="53" width="15" height="3" rx="1.5" fill="#5C6648"/>
<mask id="path-7-inside-1_185_58" fill="white">
<path d="M56 3H66V9H56V3Z"/>
</mask>
<path d="M56 3H66V9H56V3Z" fill="#5C6648"/>
<path d="M56 3V2H55V3H56ZM66 3H67V2H66V3ZM56 4H66V2H56V4ZM65 3V9H67V3H65ZM57 9V3H55V9H57Z" fill="#B1C688" mask="url(#path-7-inside-1_185_58)"/>
<path d="M28.5938 65.2188C22.8646 65.2188 20 61.8438 20 55.0938C20 52.0521 20.5208 48.8854 21.5625 45.5938C22.6042 42.2812 24.125 38.9479 26.125 35.5938C28.1667 32.1979 30.4792 29.1458 33.0625 26.4375C35.6458 23.7292 38.4062 21.4375 41.3438 19.5625C44.2812 17.6667 47.3542 16.2188 50.5625 15.2188C53.7708 14.2188 57.0208 13.7188 60.3125 13.7188C62.5833 13.7188 64.5938 13.9479 66.3438 14.4062C68.0938 14.8438 69.5625 15.5 70.75 16.375C71.9583 17.2292 72.875 18.2917 73.5 19.5625C74.125 20.8125 74.4375 22.25 74.4375 23.875C74.4375 26.1042 73.9167 28.1979 72.875 30.1562C71.8333 32.0938 70.4062 33.7917 68.5938 35.25C66.7812 36.6875 64.6458 37.8333 62.1875 38.6875C59.75 39.5417 57.1354 39.9792 54.3438 40V39.6562C56.8021 39.2396 59.0208 38.5521 61 37.5938C62.9792 36.6146 64.6562 35.4167 66.0312 34C67.4271 32.5625 68.4896 30.9271 69.2188 29.0938C69.9688 27.2604 70.3438 25.2812 70.3438 23.1562C70.3438 21.0104 69.9271 19.3125 69.0938 18.0625C68.2812 16.7917 66.9688 15.9062 65.1562 15.4062C64.0312 15.8854 62.9167 16.5729 61.8125 17.4688C60.7292 18.3646 59.8229 19.375 59.0938 20.5C58.8646 20.8333 58.6458 21.1875 58.4375 21.5625C58.2292 21.9167 57.9896 22.375 57.7188 22.9375C57.4688 23.5 57.1667 24.2083 56.8125 25.0625C56.4792 25.8958 56.0729 26.9583 55.5938 28.25C55.1146 29.5208 54.5417 31.0625 53.875 32.875C53.2083 34.6667 52.4271 36.8021 51.5312 39.2812C49.9271 43.6979 48.2604 47.5417 46.5312 50.8125C44.8021 54.0625 42.9896 56.7604 41.0938 58.9062C39.1979 61.0312 37.2083 62.6146 35.125 63.6562C33.0625 64.6979 30.8854 65.2188 28.5938 65.2188ZM52.4062 25.5625C53.1146 24.3542 53.9167 23.2188 54.8125 22.1562C55.7083 21.0729 56.6458 20.0833 57.625 19.1875C58.625 18.2917 59.6562 17.5104 60.7188 16.8438C61.8021 16.1562 62.8854 15.5938 63.9688 15.1562C63.4688 15.0729 62.9375 15.0104 62.375 14.9688C61.8333 14.9271 61.25 14.9062 60.625 14.9062C57.5 14.9062 54.3854 15.3958 51.2812 16.375C48.1771 17.3542 45.1979 18.7604 42.3438 20.5938C39.4896 22.4271 36.8021 24.6458 34.2812 27.25C31.7812 29.8542 29.5521 32.7812 27.5938 36.0312C25.6771 39.1979 24.2188 42.4062 23.2188 45.6562C22.2396 48.8854 21.75 52.0417 21.75 55.125C21.75 58.1875 22.2812 60.4167 23.3438 61.8125C24.4062 63.2083 26.0729 63.9062 28.3438 63.9062C29.4271 63.9062 30.4375 63.7708 31.375 63.5C32.3125 63.2292 33.2083 62.7812 34.0625 62.1562C34.9375 61.5312 35.7812 60.7188 36.5938 59.7188C37.4062 58.7188 38.2292 57.4792 39.0625 56C39.9167 54.5208 40.7812 52.7917 41.6562 50.8125C42.5521 48.8333 43.5104 46.5625 44.5312 44C45.4271 41.7083 46.2083 39.7188 46.875 38.0312C47.5625 36.3229 48.1562 34.8542 48.6562 33.625C49.1562 32.3958 49.5833 31.3646 49.9375 30.5312C50.2917 29.6979 50.6146 28.9896 50.9062 28.4062C51.1979 27.8021 51.4583 27.2812 51.6875 26.8438C51.9167 26.4062 52.1562 25.9792 52.4062 25.5625Z" fill="white"/>
<circle cx="37.5" cy="29.5" r="13.5" fill="black" stroke="#5C6648" stroke-width="2"/>
<circle cx="37.5" cy="29.5" r="6" fill="black" stroke="#858585"/>
<circle cx="40.5" cy="26.5" r="1.5" fill="white" fill-opacity="0.72"/>
<path d="M14.1666 81.6666H13.3333C6.66659 81.6666 3.33325 79.9999 3.33325 71.6666V63.3333C3.33325 56.6666 6.66659 53.3333 13.3333 53.3333H26.6666C33.3333 53.3333 36.6666 56.6666 36.6666 63.3333V71.6666C36.6666 78.3333 33.3333 81.6666 26.6666 81.6666H25.8333C25.3166 81.6666 24.8166 81.9166 24.4999 82.3333L21.9999 85.6666C20.8999 87.1333 19.0999 87.1333 17.9999 85.6666L15.4999 82.3333C15.2333 81.9666 14.6166 81.6666 14.1666 81.6666Z" stroke="url(#paint2_linear_185_58)" stroke-width="1.5" stroke-miterlimit="10" stroke-linecap="round" stroke-linejoin="round"/>
<path d="M26.6608 68.3333H26.6758" stroke="url(#paint3_linear_185_58)" stroke-width="1.5" stroke-linecap="round" stroke-linejoin="round"/>
<path d="M19.9924 68.3333H20.0074" stroke="url(#paint4_linear_185_58)" stroke-width="1.5" stroke-linecap="round" stroke-linejoin="round"/>
<path d="M13.3242 68.3333H13.3391" stroke="url(#paint5_linear_185_58)" stroke-width="1.5" stroke-linecap="round" stroke-linejoin="round"/>
<defs>
<linearGradient id="paint0_linear_185_58" x1="3.33325" y1="69.9916" x2="36.6666" y2="69.9916" gradientUnits="userSpaceOnUse">
<stop stop-color="#B1C688"/>
<stop offset="0.5" stop-color="#88B1C6"/>
<stop offset="1" stop-color="#C688B1"/>
</linearGradient>
<linearGradient id="paint1_linear_185_58" x1="13" y1="40" x2="81" y2="40" gradientUnits="userSpaceOnUse">
<stop stop-color="#B1C688"/>
<stop offset="0.5" stop-color="#88B1C6"/>
<stop offset="1" stop-color="#C688B1"/>
</linearGradient>
<linearGradient id="paint2_linear_185_58" x1="3.33325" y1="70.0499" x2="36.6666" y2="70.0499" gradientUnits="userSpaceOnUse">
<stop stop-color="#B1C688"/>
<stop offset="0.5" stop-color="#88B1C6"/>
<stop offset="1" stop-color="#C688B1"/>
</linearGradient>
<linearGradient id="paint3_linear_185_58" x1="25.8367" y1="68.3333" x2="27.5" y2="68.3333" gradientUnits="userSpaceOnUse">
<stop stop-color="#B1C688"/>
<stop offset="0.5" stop-color="#88B1C6"/>
<stop offset="1" stop-color="#C688B1"/>
</linearGradient>
<linearGradient id="paint4_linear_185_58" x1="19.1682" y1="68.3333" x2="20.8315" y2="68.3333" gradientUnits="userSpaceOnUse">
<stop stop-color="#B1C688"/>
<stop offset="0.5" stop-color="#88B1C6"/>
<stop offset="1" stop-color="#C688B1"/>
</linearGradient>
<linearGradient id="paint5_linear_185_58" x1="12.5" y1="68.3333" x2="14.1633" y2="68.3333" gradientUnits="userSpaceOnUse">
<stop stop-color="#B1C688"/>
<stop offset="0.5" stop-color="#88B1C6"/>
<stop offset="1" stop-color="#C688B1"/>
</linearGradient>
</defs>
</svg>
